<?xml version="1.0" standalone="no"?>
<!DOCTYPE svg PUBLIC "-//W3C//DTD SVG 20010904//EN"
 "http://www.w3.org/TR/2001/REC-SVG-20010904/DTD/svg10.dtd">
<svg version="1.0" xmlns="http://www.w3.org/2000/svg"
 width="535.000000pt" height="535.000000pt" viewBox="0 0 535.000000 535.000000"
 preserveAspectRatio="xMidYMid meet">
<metadata>
Created by potrace 1.14, written by Peter Selinger 2001-2017
</metadata>
<g transform="translate(0.000000,535.000000) scale(0.100000,-0.100000)"
fill="#000000" stroke="none">
<path d="M773 3525 c-393 -100 -671 -446 -675 -843 -1 -115 5 -163 32 -259
138 -495 671 -770 1152 -597 78 29 197 89 213 108 6 7 18 17 28 23 34 18 149
137 187 193 87 128 144 283 156 422 l6 84 -78 0 -79 -1 -7 -65 c-19 -177 -94
-330 -222 -453 -78 -75 -220 -160 -284 -170 -9 -1 -21 -5 -27 -9 -33 -20 -243
-30 -310 -15 -22 5 -50 11 -63 13 -83 16 -207 83 -297 160 -277 236 -328 661
-117 966 30 43 114 129 164 167 41 33 148 87 206 106 30 9 90 22 135 29 l81
11 1 78 1 78 -58 -2 c-32 -1 -97 -12 -145 -24z"/>
<path d="M2417 3193 c-2 -1 -18 -5 -37 -8 -54 -9 -135 -52 -175 -93 -114 -115
-143 -338 -66 -494 82 -166 291 -227 524 -152 l47 16 -2 181 -3 182 -145 0
-145 0 0 -40 0 -39 100 -1 100 0 3 -113 c3 -126 8 -118 -83 -130 -153 -20
-262 31 -318 148 -29 61 -31 223 -4 289 38 93 108 153 197 168 25 4 49 6 53 5
5 -1 36 -4 70 -6 34 -2 75 -9 90 -15 16 -6 30 -11 33 -11 5 0 35 72 31 76 -18
18 -257 51 -270 37z"/>
<path d="M3025 2950 c-92 -15 -166 -70 -197 -149 -8 -20 -16 -68 -17 -107 -6
-173 93 -279 259 -278 107 0 182 45 233 139 32 58 31 201 -2 264 -52 100 -156
149 -276 131z m135 -92 c56 -38 78 -88 78 -176 0 -60 -5 -84 -23 -116 -47 -84
-169 -106 -251 -46 -94 69 -90 276 6 337 48 30 146 31 190 1z"/>
<path d="M3628 2943 c-18 -7 -50 -32 -70 -55 -31 -35 -38 -39 -40 -23 0 11 -2
25 -3 30 -2 6 -3 18 -4 28 -1 12 -10 17 -34 17 l-32 0 0 -255 c0 -140 3 -255
7 -256 5 -1 17 -1 28 -1 53 0 50 -9 50 158 l0 155 40 59 c54 80 80 92 140 66
11 -4 21 4 34 25 18 31 18 33 1 46 -11 7 -24 13 -29 14 -6 0 -21 2 -33 3 -12
1 -37 -3 -55 -11z"/>
<path d="M3953 2938 c-99 -37 -151 -121 -158 -252 -7 -153 84 -257 233 -270
54 -4 140 11 180 33 21 11 21 13 6 42 -11 23 -20 29 -32 23 -154 -65 -280 -16
-298 118 l-6 45 168 0 c93 1 180 1 193 2 23 1 24 3 18 59 -8 74 -28 120 -68
160 -57 55 -152 72 -236 40z m165 -76 c37 -24 71 -110 45 -113 -12 -1 -246 -1
-266 0 -16 1 -16 3 -2 39 21 48 43 70 90 86 44 15 99 11 133 -12z"/>
<path d="M4495 2952 c-29 -6 -88 -34 -104 -50 -26 -25 -39 -81 -28 -123 11
-45 41 -67 151 -110 95 -37 116 -57 116 -108 0 -32 -5 -44 -25 -57 -32 -21
-125 -21 -185 0 -58 20 -56 21 -69 -14 -9 -28 -8 -31 18 -45 108 -56 291 -31
332 46 16 31 20 90 9 125 -19 57 -70 92 -203 140 -26 9 -53 26 -58 36 -15 29
-3 63 26 76 33 15 117 15 166 0 45 -13 47 -12 55 29 6 28 4 30 -38 42 -46 13
-130 19 -163 13z"/>
<path d="M4780 2935 c0 -2 45 -118 101 -257 l100 -253 -30 -60 c-31 -60 -75
-114 -118 -142 -17 -11 -21 -22 -18 -49 1 -20 5 -37 7 -39 9 -9 117 77 151
121 49 64 62 91 177 394 54 140 101 263 105 273 6 15 1 17 -38 17 l-45 0 -36
-107 c-20 -60 -41 -117 -46 -128 -5 -11 -21 -58 -36 -104 l-27 -85 -29 75
c-15 40 -41 110 -57 154 -16 44 -39 106 -51 138 l-21 57 -45 0 c-24 0 -44 -2
-44 -5z"/>
<path d="M919 2810 c-1 -3 -2 -21 -3 -40 -1 -29 -5 -35 -23 -36 -13 -1 -28 -2
-33 -3 -7 -1 -10 -25 -8 -63 2 -47 7 -63 18 -64 8 -1 22 -2 30 -3 13 -1 15
-35 15 -248 l0 -248 65 0 65 0 -1 248 c0 136 3 248 6 248 3 1 140 2 305 3
l300 1 0 65 0 65 -305 0 -305 0 0 32 c0 17 -4 35 -8 39 -9 9 -116 13 -118 4z"/>
</g>
</svg>
